<?xml version="1.0" encoding="UTF-8" standalone="no"?>
<svg
   xmlns:dc="http://purl.org/dc/elements/1.1/"
   xmlns:cc="http://creativecommons.org/ns#"
   xmlns:rdf="http://www.w3.org/1999/02/22-rdf-syntax-ns#"
   xmlns:svg="http://www.w3.org/2000/svg"
   xmlns="http://www.w3.org/2000/svg"
   xmlns:sodipodi="http://sodipodi.sourceforge.net/DTD/sodipodi-0.dtd"
   xmlns:inkscape="http://www.inkscape.org/namespaces/inkscape"
   inkscape:version="1.0 (4035a4fb49, 2020-05-01)"
   sodipodi:docname="icon-light.svg"
   id="svg879"
   viewBox="0 0 700.000000 700.000000"
   height="933.333"
   width="933.333"
   version="1">
  <metadata
     id="metadata885">
    <rdf:RDF>
      <cc:Work
         rdf:about="">
        <dc:format>image/svg+xml</dc:format>
        <dc:type
           rdf:resource="http://purl.org/dc/dcmitype/StillImage" />
        <dc:title></dc:title>
      </cc:Work>
    </rdf:RDF>
  </metadata>
  <defs
     id="defs883" />
  <sodipodi:namedview
     inkscape:current-layer="svg879"
     inkscape:window-maximized="1"
     inkscape:window-y="1473"
     inkscape:window-x="8"
     inkscape:cy="487.11605"
     inkscape:cx="462.80757"
     inkscape:zoom="1.9575007"
     showgrid="false"
     id="namedview881"
     inkscape:window-height="2075"
     inkscape:window-width="3820"
     inkscape:pageshadow="2"
     inkscape:pageopacity="0"
     guidetolerance="10"
     gridtolerance="10"
     objecttolerance="10"
     borderopacity="1"
     bordercolor="#666666"
     pagecolor="#000000" />
  <path
     style="fill:#ffffff"
     id="path877"
     d="M29 61.3c0 .4 33.8 89.3 41.5 109.2 2.9 7.4 9.7 25.4 13.7 36 1.7 4.4 3.4 8.9 3.9 10 .9 2 9.2 23.9 13.4 35 1.2 3.3 6.6 17.5 12 31.5s10.8 28.2 12 31.5c3 8.1 18.1 47.5 21 55 2.2 5.6 14.9 38.9 21.7 57 1.6 4.4 3.4 8.9 3.9 10 .5 1.1 7.1 18.4 14.8 38.5 7.6 20.1 22.5 59.2 33.1 87 10.7 27.8 20.3 53.2 21.6 56.5l2.2 6 43.4.3 43.5.2 4.8-13.2c2.7-7.3 5.1-13.8 5.5-14.3.4-.6 1.4-3 2.3-5.5 2.3-6.5 51.5-135.8 53.2-140 .8-1.9 3.3-8.5 5.6-14.5 2.2-6.1 5.1-13.7 6.4-17 1.3-3.3 5.6-14.6 9.5-25 4-10.5 8.9-23.5 11.1-29 2.1-5.5 12.1-31.8 22.3-58.5 10.1-26.7 18.9-49.6 19.4-51 .6-1.4 3.8-9.9 7.2-19 3.4-9.1 6.7-17.9 7.4-19.5.7-1.7 3-7.5 5-13 2.1-5.5 4.8-12.7 6.1-16 1.3-3.3 4.5-11.6 7-18.5s5-13.4 5.5-14.5c1.5-3.2 36-94.2 36-94.9 0-.3-17.7-.6-39.4-.6h-39.3l-1.6 4.2c-.9 2.4-6.4 17.8-12.2 34.3-5.8 16.5-11.7 32.9-13 36.5-1.3 3.6-5.8 16.4-10 28.5-4.3 12.1-8.1 22.9-8.6 24-.4 1.1-2 5.4-3.4 9.6l-2.6 7.6-127.2-.1-127.2-.1-5.8-16.5c-3.2-9.1-6.7-18.8-7.7-21.5-1-2.8-4.6-12.9-8-22.5-9-25.7-16.9-47.8-19-53.5-1-2.8-3.9-10.6-6.3-17.5l-4.4-12.5-40.1-.3c-22.1-.1-40.2-.1-40.2.1zm360.6 211.4c-4.2 11.7-15.8 43.1-16.6 44.8-.5 1.1-4.3 11.4-8.5 23-13.3 36.3-54.5 147.8-56 151.5-.8 1.9-3.3 8.7-5.5 15-2.3 6.3-4.8 13.1-5.5 15-.8 1.9-3.4 8.9-5.9 15.5-4.3 11.7-4.5 11.9-5.6 9-.6-1.7-2.6-7.1-4.5-12-1.9-5-8.8-23.9-15.5-42-6.7-18.2-13.7-37.1-15.5-42-1.8-5-10.4-28.1-19-51.5s-18.7-50.8-22.5-61c-13.9-37.5-25-67.9-25-68.5 0-.3 46.6-.5 103.5-.5h103.4l-1.3 3.7zM613 72.1c-2.5.3-4.2.7-3.8.7.3.1-.3 2.6-1.4 5.4-1.1 2.9-3.5 9.3-5.3 14.3-1.8 4.9-10.4 28.1-19 51.5s-16.6 45-17.6 48c-1.1 3-2.4 6.4-2.9 7.5-.5 1.1-1.4 3.8-2.1 6-.6 2.2-1.4 4.4-1.8 5-.3.5-1.3 3-2.2 5.5-2.9 8.1-16.6 45.3-19.7 53.5-1.6 4.4-5.7 15.4-9.1 24.5-3.3 9.1-10.6 28.9-16.2 44-18.4 49.9-23 62.4-26.9 73-2.1 5.8-9.2 25.2-15.9 43.3-6.6 18-12.1 33.1-12.1 33.5 0 .5 14.1 1 31.4 1.1l31.3.2 16.8-42.3c9.2-23.3 17.3-43.7 18-45.3.7-1.7 6.3-15.6 12.3-31 6.1-15.4 17.2-43.5 24.7-62.5s17.9-45.1 23-58c5.1-12.9 15.4-39 23-58 7.5-19 17.7-44.9 22.7-57.5 5-12.7 12.6-31.8 16.9-42.5 4.3-10.7 7.6-19.6 7.4-19.8-.6-.6-66.9-.7-71.5-.1zM425.6 585.5c-8.6 21.4-15.8 39.8-16.2 40.8-.6 1.6 1 1.7 28.7 1.5l29.3-.3 7.7-19.3c4.2-10.6 7.9-19.6 8.3-19.9.3-.4.6-1.2.6-1.9 0-.8 1.1-3.7 2.4-6.6 3.2-7.1 12.6-31.4 12.6-32.4 0-.5-13-.9-29-.9h-29l-15.4 39z" />
</svg>
